<?xml version="1.0" standalone="no"?>
<!DOCTYPE svg PUBLIC "-//W3C//DTD SVG 20010904//EN"
 "http://www.w3.org/TR/2001/REC-SVG-20010904/DTD/svg10.dtd">
<svg version="1.0" xmlns="http://www.w3.org/2000/svg"
 width="500.000000pt" height="500.000000pt" viewBox="0 0 500.000000 500.000000"
 preserveAspectRatio="xMidYMid meet">

<g transform="translate(0.000000,500.000000) scale(0.100000,-0.100000)"
fill="#000000" stroke="none">
<path d="M1931 4559 c-268 -41 -504 -251 -582 -519 -19 -65 -22 -109 -28 -340
-7 -298 -11 -316 -88 -379 -64 -53 -110 -61 -359 -61 -123 0 -247 -5 -276 -11
-214 -43 -403 -186 -501 -377 -59 -115 -80 -201 -80 -332 -1 -129 17 -203 79
-329 86 -175 256 -314 454 -371 65 -19 111 -23 340 -29 244 -6 268 -8 305 -28
51 -27 79 -57 104 -113 18 -40 21 -66 21 -245 0 -110 5 -234 10 -275 23 -176
99 -322 234 -448 303 -282 780 -248 1047 76 56 67 116 188 139 278 17 67 20
115 21 353 1 152 4 263 6 247 4 -28 5 -27 28 21 12 28 38 62 57 76 71 55 87
57 367 57 l259 0 17 -50 c33 -100 129 -197 228 -232 63 -21 176 -23 241 -4
113 34 211 132 247 247 62 198 -46 409 -243 475 -76 25 -196 16 -276 -20 -79
-36 -163 -124 -189 -196 l-18 -50 -268 0 c-177 0 -275 -4 -289 -11 -11 -6 -33
-12 -48 -13 -41 -3 -137 -65 -181 -118 -22 -25 -51 -72 -66 -105 -27 -57 -28
-61 -34 -328 -6 -236 -9 -278 -27 -335 -59 -183 -209 -327 -388 -375 -76 -21
-213 -21 -288 0 -197 53 -359 224 -402 424 -9 45 -14 136 -14 286 0 172 -3
226 -15 248 -8 15 -10 25 -4 22 16 -11 -31 97 -62 139 -42 58 -112 112 -177
137 -52 21 -79 23 -322 29 -291 7 -335 15 -446 79 -210 121 -321 378 -265 611
45 184 207 351 389 401 55 16 103 19 283 19 196 0 335 12 325 29 -2 3 9 6 25
7 42 2 134 68 181 130 76 102 81 124 88 434 6 261 8 278 32 342 34 90 79 157
147 220 301 279 784 146 912 -252 18 -54 22 -95 24 -240 4 -196 6 -213 40
-288 47 -103 121 -172 229 -215 43 -17 82 -22 241 -26 l190 -6 3 -25 c7 -56
56 -183 94 -242 82 -129 192 -222 360 -303 91 -45 144 -55 165 -34 9 9 45 2
140 -25 156 -44 268 -66 336 -66 193 2 389 128 473 304 20 42 42 76 48 76 7 0
22 10 34 23 29 31 31 124 3 158 -24 30 -89 33 -119 5 -36 -32 -36 -145 -1
-167 23 -14 -46 -136 -114 -203 -158 -155 -312 -172 -648 -75 -101 29 -107 33
-116 62 -7 28 -24 40 -133 97 -247 129 -360 290 -360 516 0 127 38 231 124
336 58 71 125 120 251 183 83 42 103 56 118 86 16 33 24 38 110 62 238 68 332
80 437 53 143 -37 272 -149 326 -286 15 -36 15 -43 1 -58 -35 -40 -29 -138 10
-168 29 -22 86 -17 111 9 17 18 22 36 22 76 0 63 -11 86 -50 106 -17 9 -30 21
-30 28 0 28 -50 116 -98 173 -60 73 -153 134 -248 164 -129 41 -267 28 -514
-46 -74 -23 -88 -24 -122 -13 -33 11 -44 9 -95 -10 -71 -27 -198 -101 -264
-152 -112 -89 -213 -252 -245 -395 l-16 -74 -159 0 c-186 0 -245 15 -300 77
-56 64 -62 90 -70 308 -7 215 -17 262 -79 385 -143 282 -445 437 -759 389z
m2006 -2424 c148 -44 230 -222 164 -358 -52 -106 -171 -170 -282 -149 -237 44
-300 350 -98 478 69 43 137 52 216 29z m-1150 -407 c-3 -8 -6 -5 -6 6 -1 11 2
17 5 13 3 -3 4 -12 1 -19z m-1342 -18 c10 -11 16 -20 13 -20 -3 0 -13 9 -23
20 -10 11 -16 20 -13 20 3 0 13 -9 23 -20z"/>
<path d="M3824 2060 c-140 -32 -193 -201 -96 -303 39 -42 75 -57 132 -57 69 0
113 21 149 70 53 74 50 167 -10 235 -40 45 -116 69 -175 55z"/>
</g>
</svg>
