<?xml version="1.0" standalone="no"?>
<!DOCTYPE svg PUBLIC "-//W3C//DTD SVG 20010904//EN"
 "http://www.w3.org/TR/2001/REC-SVG-20010904/DTD/svg10.dtd">
<svg version="1.0" xmlns="http://www.w3.org/2000/svg"
 width="500.000000pt" height="500.000000pt" viewBox="0 0 500.000000 500.000000"
 preserveAspectRatio="xMidYMid meet">

<g transform="translate(0.000000,500.000000) scale(0.100000,-0.100000)"
fill="#000000" stroke="none">
<path d="M1964 4560 c-94 -13 -141 -28 -241 -77 -166 -80 -296 -230 -360 -414
-24 -70 -26 -89 -34 -383 -4 -169 -11 -311 -14 -314 -3 -3 -5 8 -5 24 l-1 29
-16 -30 c-25 -48 -65 -86 -113 -109 -41 -19 -68 -21 -315 -26 -262 -6 -272 -7
-350 -34 -186 -64 -335 -191 -418 -356 -62 -125 -77 -188 -77 -330 0 -86 5
-134 21 -190 56 -203 203 -377 394 -466 127 -59 165 -65 450 -71 l260 -5 54
-29 c29 -16 57 -26 62 -24 4 3 20 -21 35 -52 28 -58 28 -59 34 -323 6 -236 9
-273 29 -339 61 -199 173 -339 353 -441 172 -98 397 -113 586 -40 234 90 380
257 449 510 11 39 17 137 22 335 4 154 8 269 10 255 2 -25 2 -25 15 5 22 51
68 97 121 121 48 23 58 24 311 24 l261 0 18 -47 c38 -100 102 -172 195 -220
50 -25 65 -28 160 -28 97 0 110 2 164 30 79 40 142 105 180 185 28 58 31 75
31 155 0 80 -4 98 -31 155 -37 79 -107 150 -183 188 -50 24 -67 27 -156 27
-93 0 -105 -2 -167 -33 -81 -40 -160 -122 -185 -193 l-18 -49 -262 0 c-168 0
-272 -4 -290 -11 -15 -6 -37 -12 -48 -13 -11 0 -20 -6 -20 -13 0 -6 -4 -15 -9
-20 -5 -5 -6 -3 -2 5 26 44 -91 -24 -148 -88 -86 -96 -114 -224 -101 -477 12
-249 -31 -384 -168 -522 -107 -108 -227 -162 -372 -167 -49 -2 -112 2 -140 8
-158 33 -316 156 -390 302 -53 106 -67 199 -64 441 2 110 0 217 -4 238 -21
111 -131 242 -243 287 -55 22 -77 24 -324 31 -146 3 -284 12 -308 18 -142 37
-296 163 -360 293 -133 272 -29 595 237 737 99 52 153 61 386 61 115 1 230 5
255 11 25 6 53 10 62 10 10 0 21 5 24 11 5 7 2 8 -6 3 -8 -5 -11 -4 -6 3 4 6
13 9 20 6 33 -12 147 70 195 140 60 87 71 144 71 363 0 271 10 347 60 449 93
190 293 320 495 323 143 1 292 -59 397 -161 75 -73 110 -124 146 -217 23 -61
26 -82 31 -281 6 -213 7 -215 37 -280 42 -89 107 -153 202 -198 l77 -37 189
-5 188 -5 19 -73 c55 -216 210 -389 452 -502 86 -41 134 -49 154 -29 9 9 39 4
120 -19 249 -71 343 -83 456 -58 42 10 104 31 139 48 88 44 186 145 230 236
23 48 46 79 69 95 30 20 34 29 37 72 5 69 -4 92 -39 110 -38 20 -83 12 -104
-18 -21 -30 -20 -125 1 -148 14 -16 15 -23 4 -51 -22 -54 -78 -133 -123 -176
-102 -93 -202 -127 -352 -119 -101 6 -148 15 -306 63 -80 24 -87 29 -98 60
-11 30 -26 41 -110 83 -127 62 -175 96 -243 170 -103 111 -144 226 -136 385 6
109 25 169 85 259 62 94 133 152 270 223 99 51 121 66 135 95 15 32 24 38 105
62 139 41 267 67 337 67 169 0 340 -108 417 -266 32 -64 32 -66 16 -94 -10
-17 -17 -50 -17 -82 0 -67 26 -98 81 -98 53 0 79 33 79 99 0 62 -11 86 -48
105 -18 9 -33 30 -45 63 -23 64 -107 174 -165 216 -181 132 -345 141 -682 40
-83 -26 -98 -27 -120 -16 -34 18 -67 11 -163 -38 -191 -96 -313 -211 -387
-364 -35 -72 -44 -101 -65 -197 l-5 -28 -165 0 c-152 0 -168 2 -217 24 -29 13
-65 36 -80 50 -57 54 -62 76 -69 286 -9 224 -24 294 -92 425 -59 112 -183 236
-293 292 -136 71 -289 101 -420 83z m2013 -2439 c119 -60 176 -200 134 -325
-31 -89 -151 -176 -245 -176 -56 0 -130 28 -175 67 -191 163 -61 476 190 459
30 -2 74 -13 96 -25z m-1190 -393 c-3 -8 -6 -5 -6 6 -1 11 2 17 5 13 3 -3 4
-12 1 -19z m-1342 -18 c10 -11 16 -20 13 -20 -3 0 -13 9 -23 20 -10 11 -16 20
-13 20 3 0 13 -9 23 -20z"/>
<path d="M3830 2060 c-137 -24 -199 -193 -108 -296 42 -48 78 -64 140 -64 71
0 125 31 157 90 76 137 -36 296 -189 270z"/>
</g>
</svg>
